<?xml version="1.0" encoding="UTF-8" standalone="no"?>
<!-- Created with Inkscape (http://www.inkscape.org/) -->

<svg
   width="206.17123mm"
   height="222.75069mm"
   viewBox="0 0 206.17123 222.75068"
   version="1.1"
   id="svg1"
   xml:space="preserve"
   xmlns="http://www.w3.org/2000/svg"
   xmlns:svg="http://www.w3.org/2000/svg"><defs
     id="defs1" /><g
     id="layer1"
     transform="translate(-30.101692,-16.40416)"><path
       style="fill:#000000"
       d="m 133.61459,238.61639 c -0.50932,-0.28026 -4.61698,-2.42388 -9.12813,-4.7636 -12.25896,-6.35814 -12.37218,-6.42032 -20.61442,-11.32093 -4.207414,-2.5016 -8.076946,-4.77961 -8.598961,-5.06223 -0.522014,-0.28262 -1.737476,-1.07882 -2.701026,-1.76934 -0.96355,-0.69052 -3.254137,-2.32705 -5.090194,-3.63674 -12.275441,-8.75626 -15.403482,-11.02607 -16.107439,-11.68811 -1.860578,-1.74977 -7.549469,-8.60814 -10.387959,-12.52343 -1.721365,-2.37438 -2.778014,-4.23734 -5.776424,-10.18429 l -3.335022,-6.61459 -2.024115,-5.95312 c -1.113263,-3.27422 -2.373921,-7.31918 -2.801463,-8.98879 -0.427542,-1.66961 -0.839646,-3.09836 -0.915787,-3.175 -0.07614,-0.0766 -2.539939,-0.20194 -5.475106,-0.27845 l -5.336668,-0.1391 -1.258116,-0.61827 c -2.394131,-1.17653 -3.622829,-3.43585 -3.836369,-7.05428 l -0.125697,-2.12994 2.109876,-6.8659 2.109875,-6.8659 0.612699,-4.60057 0.612699,-4.60056 -0.28975,-6.51194 -0.28975,-6.51193 -0.926099,-3.58555 c -0.509354,-1.97205 -1.424635,-5.305805 -2.033956,-7.408335 -2.193987,-7.570589 -2.160184,-7.267051 -1.067215,-9.58328 0.924859,-1.959967 1.675118,-2.866064 2.926595,-3.534484 l 0.926042,-0.494603 6.137971,-0.08362 6.13797,-0.08362 0.144654,-1.107009 c 0.07956,-0.608854 0.318077,-2.773883 0.530039,-4.811175 0.211963,-2.037291 0.630752,-6.025885 0.930642,-8.863542 0.299891,-2.837656 1.07765,-10.933906 1.728354,-17.991667 1.740348,-18.876426 2.176538,-22.273426 3.019569,-23.516108 0.258671,-0.381297 0.816359,-1.223517 1.239306,-1.871598 1.135976,-1.740653 3.615564,-4.310685 5.235249,-5.426204 0.859611,-0.592037 2.187118,-1.180434 3.354994,-1.48705 l 1.932549,-0.507375 h 66.968033 66.96804 l 1.56283,0.407066 c 4.82211,1.255999 9.05254,5.262075 10.8148,10.24124 l 0.67933,1.919403 0.79669,7.540625 c 0.43818,4.147344 0.97998,9.445626 1.20401,11.773959 1.09165,11.345537 2.83221,29.841521 2.96622,31.520372 l 0.15063,1.887038 5.98344,0.193658 5.98344,0.193658 0.96161,0.488773 c 1.1478,0.583407 2.47668,1.864663 3.01634,2.908251 0.21484,0.415461 0.56664,1.592169 0.78178,2.614906 l 0.39117,1.859522 -0.758,3.243995 c -0.80539,3.446766 -1.56721,8.086124 -2.41683,14.718014 l -0.52086,4.06569 v 6.45324 c 0,7.34101 0.36287,10.61007 1.56765,14.12268 2.07479,6.04916 3.9886,12.49263 3.9886,13.42894 0,1.4764 -0.46878,2.70233 -1.42455,3.7254 -1.60056,1.71327 -3.20138,2.16508 -8.48882,2.39583 l -3.69565,0.16128 -0.69599,2.91042 c -0.3828,1.60073 -1.73367,5.94651 -3.00194,9.65729 l -2.30594,6.74688 -3.06209,6.08542 c -1.68415,3.34697 -3.31368,6.44092 -3.62116,6.87544 -0.30749,0.43451 -0.69714,1.05246 -0.86589,1.37322 -0.16875,0.32076 -0.95294,1.39399 -1.74264,2.38497 -0.7897,0.99098 -1.59411,2.09944 -1.78757,2.46324 -0.56796,1.06803 -5.2522,6.25555 -8.36552,9.26432 l -2.8787,2.78203 -11.77396,8.36738 c -8.24046,5.85624 -13.60027,9.45346 -17.85938,11.98625 -3.34698,1.99037 -6.40931,3.84995 -6.80517,4.13239 -0.70599,0.50371 -23.09764,11.91399 -23.26966,11.85769 -0.0482,-0.0158 -0.50439,-0.258 -1.01371,-0.53826 z m -26.93858,-30.37018 c 0.33689,-0.13501 1.08879,-0.68128 1.67087,-1.21392 0.58208,-0.53265 1.53458,-1.21209 2.11667,-1.50987 0.58208,-0.29778 1.11786,-0.63139 1.19062,-0.74137 0.0728,-0.10997 5.19245,-3.24259 11.37708,-6.96136 l 11.2448,-6.76142 0.89674,-1.67812 0.89674,-1.67813 -0.185,-1.70986 -0.185,-1.70986 -0.71174,-0.83891 c -0.9082,-1.07046 -5.3509,-3.3934 -11.95654,-6.25166 -2.83765,-1.22786 -6.46906,-2.82914 -8.06979,-3.55841 -1.60073,-0.72927 -3.48129,-1.58378 -4.17903,-1.89893 -0.69774,-0.31514 -2.15556,-1.4155 -3.23961,-2.44524 l -1.971,-1.87225 -0.2932,-1.08886 c -0.56275,-2.0899 0.36284,-6.24786 1.7606,-7.909 0.38082,-0.45258 1.66427,-1.51009 2.85211,-2.35002 1.18784,-0.83994 2.63597,-1.94507 3.21805,-2.45586 l 1.05833,-0.9287 -27.450519,-0.01 c -15.097787,-0.005 -27.450522,0.0286 -27.450522,0.0757 0,0.12814 1.24427,4.16016 1.565731,5.07371 0.153618,0.43657 0.76424,2.22077 1.356937,3.9649 0.925816,2.72439 5.495019,12.37814 7.202529,15.2174 1.65447,2.75106 5.724346,7.64261 9.188406,11.04345 5.054555,4.96232 5.707653,5.48908 14.685357,11.84461 4.220104,2.98752 8.085971,5.75714 8.590811,6.15471 0.92411,0.72774 3.68882,2.39339 4.02582,2.42542 0.0997,0.009 0.45685,-0.0932 0.79375,-0.22824 z m 64.43305,-5.12875 c 1.1334,-0.773 3.42996,-2.41118 5.10345,-3.64039 1.67349,-1.22921 3.57849,-2.59102 4.23333,-3.02624 4.32398,-2.87382 6.9935,-5.10338 10.34265,-8.6381 6.47513,-6.8339 7.96215,-8.91339 11.822,-16.53223 l 2.69971,-5.32888 2.2522,-6.55389 c 1.2387,-3.60465 2.25219,-6.59423 2.25219,-6.64352 0,-0.0493 -17.88514,-0.0896 -39.74476,-0.0896 h -39.74475 l -3.97764,2.28018 c -4.4117,2.52901 -5.77463,3.64387 -6.5499,5.35771 l -0.52275,1.15561 0.43378,0.96106 0.43378,0.96106 2.51933,1.50234 2.51932,1.50234 4.98384,1.21248 c 3.00154,0.73022 8.12818,2.3017 12.88926,3.95097 l 7.90542,2.73849 3.29993,1.76326 c 3.87564,2.07087 8.12953,5.13965 9.2411,6.66658 0.67862,0.9322 1.81974,3.59981 2.70698,6.32813 0.14197,0.43656 0.30075,2.96005 0.35286,5.60776 0.11438,5.81282 0.44329,7.75728 1.51947,8.98299 0.42852,0.48805 0.82173,0.88737 0.87379,0.88737 0.0521,0 1.022,-0.63245 2.15541,-1.40546 z M 78.702339,140.51189 c 0.08377,-0.13555 -0.502216,-1.11782 -1.302198,-2.18282 l -1.454512,-1.93636 -0.0051,-16.33802 -0.0051,-16.33802 h 5.214365 5.214366 l 1.003343,0.97974 1.003343,0.97974 v 4.10233 4.10234 l -0.979739,1.00334 -0.979738,1.00334 H 84.745265 83.07917 l -0.0021,5.35782 -0.0021,5.35781 3.231458,7.0776 3.231459,7.07761 h 6.527145 c 6.803278,0 8.137808,-0.10927 8.358498,-0.68439 0.0727,-0.18951 -0.58118,-1.03578 -1.45312,-1.88061 l -1.58535,-1.53604 -2.937314,-6.467 c -1.615521,-3.55684 -2.847082,-6.54879 -2.736804,-6.64876 0.110278,-0.1 0.632343,-0.31962 1.160143,-0.4881 1.076832,-0.34373 4.028145,-3.24056 4.460755,-4.37841 0.16071,-0.42271 0.26815,-4.07148 0.26815,-9.10673 v -8.40142 l -0.41458,-1.396064 c -0.46214,-1.556191 -1.846551,-3.232895 -3.796055,-4.597535 l -1.21331,-0.849319 H 78.080978 59.985911 l -0.273254,0.433108 -0.273253,0.433108 0.805106,1.0221 c 0.442809,0.562156 1.118318,1.643221 1.501133,2.402368 l 0.696026,1.380266 v 17.318058 17.31805 l -0.915931,2.17176 c -0.503762,1.19447 -1.115507,2.39228 -1.359432,2.66182 l -0.443502,0.49006 0.333496,0.40184 0.333496,0.40184 h 9.080114 c 5.322642,0 9.143143,-0.10199 9.232429,-0.24645 z m 49.091411,-17.06654 c 0,-11.33826 0.0949,-17.56258 0.27499,-18.03625 0.50036,-1.31603 0.85689,-1.41037 5.36481,-1.41943 4.28368,-0.009 4.79298,0.0883 5.93573,1.1291 l 0.59531,0.54223 v 11.87326 11.87327 l -0.40135,0.77614 c -0.5359,1.03631 -1.66632,1.57884 -3.28968,1.57884 h -1.33605 v 4.49791 4.49792 h 4.71447 c 5.39525,0 6.56597,-0.23415 9.35027,-1.8701 1.87655,-1.10258 3.06975,-2.38624 3.76388,-4.04919 l 0.42763,-1.0245 v -16.14121 -16.14121 l -0.78383,-1.35513 c -1.26002,-2.178382 -3.02199,-4.24004 -4.40869,-5.158553 l -1.28917,-0.853911 -12.97125,0.07971 -12.97124,0.07971 -1.77464,1.266613 c -2.0912,1.492553 -3.54544,3.14931 -4.2899,4.887281 l -0.53733,1.25444 -0.0797,15.47812 c -0.0438,8.51297 -0.0101,15.85745 0.075,16.32106 0.2935,1.59968 2.09348,3.86768 4.16029,5.24201 2.37772,1.58108 3.60748,1.93108 6.89082,1.96119 l 2.57968,0.0237 z m 69.35912,16.79289 1.68151,-0.5201 1.66532,-1.68161 c 1.22816,-1.24017 1.76644,-2.01761 2.05052,-2.96154 l 0.3852,-1.27992 v -6.20578 -6.20578 l -0.57263,-1.01886 c -0.79144,-1.40818 -2.18155,-2.45252 -4.7664,-3.58084 -1.21088,-0.52856 -2.32065,-1.05468 -2.46617,-1.16917 -0.14553,-0.11448 -2.34818,-1.04321 -4.8948,-2.06384 -6.13734,-2.45973 -10.75573,-4.66959 -11.09886,-5.31073 -0.15302,-0.28592 -0.27822,-1.10455 -0.27822,-1.81916 0,-1.40156 0.2599,-1.77394 1.7728,-2.54004 l 0.84676,-0.42878 4.04803,0.006 4.04804,0.006 0.61361,0.47208 0.6136,0.47208 0.18015,2.36631 0.18014,2.36631 h 5.95312 5.95313 l 0.0612,-3.96875 0.0612,-3.96875 -1.12872,-1.980233 c -1.33868,-2.348587 -3.57018,-4.308487 -5.58774,-4.907639 l -1.30712,-0.388171 h -11.54651 -11.54651 l -1.18759,0.404653 c -1.41521,0.482209 -3.95921,2.963164 -4.46859,4.357847 -0.22017,0.602805 -0.38069,2.987593 -0.45988,6.832203 -0.12205,5.92546 0.0115,7.30071 0.87832,9.04691 0.47206,0.95091 5.85989,3.6646 13.08679,6.59142 3.27743,1.32732 6.96836,2.97598 8.20209,3.6637 l 2.24314,1.2504 0.0767,1.0582 c 0.11258,1.55234 -0.50414,3.07331 -1.52871,3.77019 l -0.87525,0.59531 h -4.2433 -4.2433 l -0.61236,-0.57529 -0.61237,-0.57528 v -2.46742 -2.46743 h -6.35 -6.35 l 0.001,4.16719 c 8.1e-4,2.29196 0.12987,4.64344 0.2868,5.22552 0.35071,1.3008 3.25349,4.37548 5.00339,5.29967 l 1.19062,0.62882 11.67995,0.0123 11.67994,0.0123 z M 160.60209,74.236401 c 2.57169,-0.820019 10.44062,-4.249547 13.71439,-5.977165 2.3314,-1.230315 3.97306,-2.505812 3.64605,-2.832816 -0.071,-0.07106 -1.41661,0.293627 -2.99013,0.810408 -1.57351,0.516781 -3.91042,1.142257 -5.19313,1.389948 l -2.3322,0.450348 -0.36485,-0.370332 -0.36484,-0.370331 2.90407,-3.175 c 1.59724,-1.74625 3.15985,-3.65125 3.47245,-4.233334 0.36828,-0.68574 0.77014,-2.385697 1.14147,-4.828646 0.31519,-2.073672 0.54808,-3.770312 0.51751,-3.770312 -0.0306,0 -2.85925,2.950827 -6.28598,6.557395 l -6.23041,6.557394 -2.33856,1.399789 c -1.2862,0.769884 -2.63621,1.615111 -3.00001,1.878283 -0.3638,0.263172 -2.44739,1.580182 -4.63021,2.926689 -2.18281,1.346507 -4.08279,2.552007 -4.22217,2.67889 -0.34797,0.316766 1.48562,-0.245836 7.92978,-2.433097 l 5.50401,-1.868159 0.33586,0.345679 0.33586,0.345679 -1.97424,2.579688 c -1.08583,1.418828 -1.88083,2.577901 -1.76667,2.575717 0.11417,-0.0022 1.10054,-0.288706 2.19195,-0.636715 z m -61.716462,-1.503114 5.687602,-1.879215 5.06182,-2.778301 c 2.78401,-1.528065 5.24042,-2.931236 5.4587,-3.118158 0.21829,-0.186921 1.12974,-0.706436 2.02547,-1.154476 l 1.62858,-0.814619 0.26233,0.321888 c 0.27096,0.332485 -1.20718,3.116961 -2.679,5.04661 -1.32401,1.735865 -0.77358,1.949856 1.58553,0.616409 3.98207,-2.250796 7.99961,-5.513109 14.04428,-11.404184 1.46936,-1.432017 2.18282,-2.323837 2.18282,-2.728502 0,-0.330634 -0.0424,-0.601154 -0.0943,-0.601154 -0.21838,0 -6.80671,3.224633 -8.56001,4.189664 -2.91507,1.604481 -2.90695,1.013341 0.0326,-2.3696 1.3678,-1.574118 2.72445,-3.436126 3.08439,-4.233333 l 0.64257,-1.423189 0.0691,-4.630209 0.0691,-4.630208 -0.59827,0.687764 c -0.32905,0.378271 -1.48564,1.828445 -2.5702,3.22261 -1.38628,1.782009 -4.7883,5.188922 -11.4548,11.471274 l -9.48286,8.936428 -7.531623,4.402031 c -4.142391,2.421117 -7.609842,4.480254 -7.705447,4.575859 -0.09561,0.0956 0.574947,0.173827 1.490117,0.173827 h 1.663944 z M 73.554169,67.259049 c 1.67349,-0.718535 3.490198,-1.572963 4.037128,-1.898729 1.454467,-0.86632 1.712067,-0.644515 1.5678,1.349949 l -0.12121,1.675712 2.351371,-2.151475 c 1.293253,-1.183312 2.6292,-2.449738 2.968769,-2.814282 l 0.6174,-0.662806 2.096066,-0.185544 c 2.000656,-0.177098 2.677749,-0.430326 2.102026,-0.786143 -0.145355,-0.08983 -1.091451,-1.377983 -2.102435,-2.862553 C 86.0601,57.438608 84.857226,55.866773 84.39803,55.43021 l -0.8349,-0.79375 -0.837293,0.963016 c -0.819235,0.942246 -1.711772,1.550526 -2.275106,1.550526 -0.155088,0 -0.293846,-0.506015 -0.308352,-1.124479 -0.0145,-0.618464 -0.113405,-1.422135 -0.219776,-1.785938 L 79.7292,53.578127 74.789601,61.055974 c -2.716779,4.112816 -4.939598,7.548601 -4.939598,7.635079 0,0.08648 0.148828,0.0936 0.330729,0.01583 0.181901,-0.07777 1.699948,-0.729296 3.373437,-1.44783 z m 0.448858,-15.350025 c 1.404762,-1.936653 2.801179,-3.655644 3.103149,-3.819981 0.301969,-0.164336 1.432726,-0.316071 2.512793,-0.337188 l 1.963757,-0.0384 1.74041,-1.864844 c 0.957225,-1.025665 2.115135,-2.007448 2.573134,-2.181741 l 0.832726,-0.316896 0.840013,0.434388 c 0.462008,0.238914 2.349469,1.838635 4.194358,3.554938 1.84489,1.716302 5.248848,4.850892 7.564353,6.965755 l 4.21001,3.845206 0.99815,-0.433985 c 0.63799,-0.277389 5.03807,-4.346485 12.19416,-11.276893 6.15781,-5.963598 12.09752,-11.708364 13.19938,-12.766146 1.17023,-1.123428 2.23116,-1.92324 2.5511,-1.92324 0.36571,0 1.41456,0.982922 3.15601,2.95761 l 2.60827,2.95761 5.82083,4.590037 c 3.20146,2.52452 7.68463,6.33619 9.9626,8.470376 2.27797,2.134187 4.38772,3.971324 4.68834,4.082528 0.33925,0.125498 1.10823,0.0089 2.02734,-0.307272 l 1.48077,-0.509461 6.29404,-5.543358 c 5.83741,-5.141197 7.805,-6.643903 8.69931,-6.643903 0.19355,0 4.60062,4.182709 9.7935,9.294908 l 9.4416,9.294907 1.32292,0.633989 c 0.7276,0.348694 1.97776,1.114786 2.77812,1.702427 l 1.45521,1.068438 0.0746,-0.480147 c 0.041,-0.26408 -0.28994,-4.052021 -0.73546,-8.417646 -0.44552,-4.365625 -0.92929,-9.187657 -1.07504,-10.715626 -0.8366,-8.770239 -1.57293,-12.383442 -2.78567,-13.669315 L 196.65525,29.63333 H 132.71293 68.770608 l -0.981647,0.501013 c -0.539906,0.275557 -1.181495,0.722041 -1.425755,0.992187 -0.637798,0.705393 -1.541362,2.919997 -1.81966,4.459926 -0.224823,1.244027 -1.056811,9.214735 -1.960835,18.785417 -0.219929,2.328334 -0.5209,5.423959 -0.668825,6.879167 -0.147925,1.455208 -0.268277,2.942283 -0.26745,3.30461 l 0.0015,0.658776 4.900498,-4.89211 c 3.652803,-3.646551 5.550789,-5.788624 7.45461,-8.413296 z"
       id="path1" /></g></svg>
